<svg width="13" height="12" viewBox="0 0 13 12" fill="none" xmlns="http://www.w3.org/2000/svg">
<path d="M2.42219 4.99819C3.38572 6.81396 4.93807 8.2961 6.83166 9.22644L8.30371 7.81488C8.48437 7.64165 8.75202 7.5839 8.98621 7.6609C9.73562 7.89829 10.5452 8.02662 11.3749 8.02662C11.743 8.02662 12.0441 8.31534 12.0441 8.66823V10.9075C12.0441 11.2604 11.743 11.5491 11.3749 11.5491C5.09196 11.5491 0 6.66639 0 0.641616C0 0.288727 0.301102 0 0.669115 0H3.01102C3.37903 0 3.68013 0.288727 3.68013 0.641616C3.68013 1.44364 3.81395 2.21358 4.06153 2.93219C4.13513 3.15675 4.0816 3.40698 3.89425 3.58663L2.42219 4.99819Z" fill="white"/>
</svg>
