<svg width="14" height="14" viewBox="0 0 14 14" fill="none" xmlns="http://www.w3.org/2000/svg">
<g clip-path="url(#clip0_988_268)">
<path d="M13.0361 6.7588C13.0361 8.42326 12.3749 10.0196 11.198 11.1965C10.021 12.3735 8.42473 13.0347 6.76026 13.0347C5.09579 13.0347 3.4995 12.3735 2.32254 11.1965C1.14558 10.0196 0.484375 8.42326 0.484375 6.7588M13.0361 6.7588C13.0361 5.09433 12.3749 3.49803 11.198 2.32107C10.021 1.14412 8.42473 0.48291 6.76026 0.48291C5.09579 0.48291 3.4995 1.14412 2.32254 2.32107C1.14558 3.49803 0.484375 5.09433 0.484375 6.7588M13.0361 6.7588H0.484375" stroke="white" stroke-width="0.965521" stroke-linecap="round" stroke-linejoin="round"/>
<path d="M9.17526 6.7588C9.0567 9.05383 8.21136 11.2517 6.76146 13.0347C5.31156 11.2517 4.46622 9.05383 4.34766 6.7588C4.46622 4.46376 5.31156 2.26589 6.76146 0.48291C8.21136 2.26589 9.0567 4.46376 9.17526 6.7588Z" stroke="white" stroke-width="0.965521" stroke-linecap="round" stroke-linejoin="round"/>
</g>
<defs>
<clipPath id="clip0_988_268">
<rect width="13.5173" height="13.5173" fill="white"/>
</clipPath>
</defs>
</svg>
