<svg width="15" height="12" viewBox="0 0 15 12" fill="none" xmlns="http://www.w3.org/2000/svg">
<path d="M13.2142 10.2777H11.7459V3.85413L7.34121 6.60709L2.93648 3.85413V10.2777H1.46824V1.46824H2.34919L7.34121 4.58825L12.3332 1.46824H13.2142M13.2142 0H1.46824C0.653367 0 0 0.653367 0 1.46824V10.2777C0 10.6671 0.154689 11.0405 0.430038 11.3159C0.705387 11.5912 1.07884 11.7459 1.46824 11.7459H13.2142C13.6036 11.7459 13.977 11.5912 14.2524 11.3159C14.5277 11.0405 14.6824 10.6671 14.6824 10.2777V1.46824C14.6824 1.07884 14.5277 0.705387 14.2524 0.430038C13.977 0.154689 13.6036 0 13.2142 0Z" fill="white"/>
</svg>
