<svg width="49" height="49" viewBox="0 0 49 49" fill="none" xmlns="http://www.w3.org/2000/svg">
<rect x="1" y="1" width="47" height="47" rx="23.5" stroke="white" stroke-width="2"/>
<path d="M35.2649 18.9639L24.5003 29.4571L13.7357 18.9639C13.5434 18.776 13.2852 18.6709 13.0163 18.6709C12.7474 18.6709 12.4893 18.776 12.2969 18.9639C12.2038 19.0552 12.1298 19.1641 12.0793 19.2843C12.0288 19.4045 12.0028 19.5335 12.0028 19.6639C12.0028 19.7943 12.0288 19.9233 12.0793 20.0435C12.1298 20.1637 12.2038 20.2726 12.2969 20.3639L23.7486 31.5291C23.9497 31.7251 24.2194 31.8348 24.5003 31.8348C24.7811 31.8348 25.0509 31.7251 25.252 31.5291L36.7036 20.366C36.7974 20.2747 36.872 20.1655 36.9229 20.0449C36.9737 19.9244 37 19.7948 37 19.6639C37 19.533 36.9737 19.4034 36.9229 19.2828C36.872 19.1622 36.7974 19.0531 36.7036 18.9618C36.5113 18.7739 36.2531 18.6687 35.9843 18.6687C35.7154 18.6687 35.4572 18.7739 35.2649 18.9618V18.9639Z" fill="white"/>
</svg>
